HIERARCHY
ROOT Hips
{
	OFFSET 0.00000 0.00000 0.00000
	CHANNELS 6 Xposition Yposition Zposition Zrotation Yrotation Xrotation 
	JOINT LHipJoint
	{
		OFFSET 0 0 0
		CHANNELS 3 Zrotation Yrotation Xrotation
		JOINT LeftUpLeg
		{
			OFFSET 1.62964 -1.40469 0.78906
			CHANNELS 3 Zrotation Yrotation Xrotation
			JOINT LeftLeg
			{
				OFFSET 2.29640 -6.30932 0.00000
				CHANNELS 3 Zrotation Yrotation Xrotation
				JOINT LeftFoot
				{
					OFFSET 2.29451 -6.30412 0.00000
					CHANNELS 3 Zrotation Yrotation Xrotation
					JOINT LeftToeBase
					{
						OFFSET 0.03611 -0.09921 1.56387
						CHANNELS 3 Zrotation Yrotation Xrotation
						End Site
						{
							OFFSET 0.00000 -0.00000 0.80291
						}
					}
				}
			}
		}
	}
	JOINT RHipJoint
	{
		OFFSET 0 0 0
		CHANNELS 3 Zrotation Yrotation Xrotation
		JOINT RightUpLeg
		{
			OFFSET -1.73712 -1.40469 0.78906
			CHANNELS 3 Zrotation Yrotation Xrotation
			JOINT RightLeg
			{
				OFFSET -2.28137 -6.26801 0.00000
				CHANNELS 3 Zrotation Yrotation Xrotation
				JOINT RightFoot
				{
					OFFSET -2.28681 -6.28298 0.00000
					CHANNELS 3 Zrotation Yrotation Xrotation
					JOINT RightToeBase
					{
						OFFSET -0.15927 -0.43759 1.61103
						CHANNELS 3 Zrotation Yrotation Xrotation
						End Site
						{
							OFFSET -0.00000 -0.00000 0.84630
						}
					}
				}
			}
		}
	}
	JOINT LowerBack
	{
		OFFSET 0 0 0
		CHANNELS 3 Zrotation Yrotation Xrotation
		JOINT Spine
		{
			OFFSET -0.04227 2.04338 -0.00225
			CHANNELS 3 Zrotation Yrotation Xrotation
			JOINT Spine1
			{
				OFFSET -0.02148 2.04482 -0.04273
				CHANNELS 3 Zrotation Yrotation Xrotation
				JOINT Neck
				{
					OFFSET 0 0 0
					CHANNELS 3 Zrotation Yrotation Xrotation
					JOINT Neck1
					{
						OFFSET 0.09180 1.44629 0.19359
						CHANNELS 3 Zrotation Yrotation Xrotation
						JOINT Head
						{
							OFFSET 0.00887 1.40645 0.14750
							CHANNELS 3 Zrotation Yrotation Xrotation
							End Site
							{
								OFFSET -0.00669 1.50671 0.03707
							}
						}
					}
				}
				JOINT LeftShoulder
				{
					OFFSET 0 0 0
					CHANNELS 3 Zrotation Yrotation Xrotation
					JOINT LeftArm
					{
						OFFSET 2.17674 1.86763 -0.06520
						CHANNELS 3 Zrotation Yrotation Xrotation
						JOINT LeftForeArm
						{
							OFFSET 4.65776 -0.00000 0.00000
							CHANNELS 3 Zrotation Yrotation Xrotation
							JOINT LeftHand
							{
								OFFSET 3.55539 -0.00000 0.00000
								CHANNELS 3 Zrotation Yrotation Xrotation
								JOINT LeftFingerBase
								{
									OFFSET 0 0 0
									CHANNELS 3 Zrotation Yrotation Xrotation
									JOINT LeftHandIndex1
									{
										OFFSET 0.70726 -0.00000 0.00000
										CHANNELS 3 Zrotation Yrotation Xrotation
										End Site
										{
											OFFSET 0.57022 -0.00000 0.00000
										}
									}
								}
								JOINT LThumb
								{
									OFFSET 0 0 0
									CHANNELS 3 Zrotation Yrotation Xrotation
									End Site
									{
										OFFSET 0.57892 -0.00000 0.57892
									}
								}
							}
						}
					}
				}
				JOINT RightShoulder
				{
					OFFSET 0 0 0
					CHANNELS 3 Zrotation Yrotation Xrotation
					JOINT RightArm
					{
						OFFSET -2.80694 1.55459 -0.32496
						CHANNELS 3 Zrotation Yrotation Xrotation
						JOINT RightForeArm
						{
							OFFSET -4.71925 -0.00000 -0.00000
							CHANNELS 3 Zrotation Yrotation Xrotation
							JOINT RightHand
							{
								OFFSET -3.56990 -0.00000 0.00000
								CHANNELS 3 Zrotation Yrotation Xrotation
								JOINT RightFingerBase
								{
									OFFSET 0 0 0
									CHANNELS 3 Zrotation Yrotation Xrotation
									JOINT RightHandIndex1
									{
										OFFSET -0.50776 -0.00000 0.00000
										CHANNELS 3 Zrotation Yrotation Xrotation
										End Site
										{
											OFFSET -0.40937 -0.00000 0.00000
										}
									}
								}
								JOINT RThumb
								{
									OFFSET 0 0 0
									CHANNELS 3 Zrotation Yrotation Xrotation
									End Site
									{
										OFFSET -0.41562 -0.00000 0.41562
									}
								}
							}
						}
					}
				}
			}
		}
	}
}
MOTION
Frames: 15
Frame Time: .0083333
9.4776 16.4265 19.0201 170.3720 7.0359 -145.7860 0.0000 0.0000 0.0000 8.4662 -15.9339 -28.5575 1.6353 8.0610 22.8996 -4.1524 34.3266 -4.7305 1.4364 7.5776 21.4382 0.0000 0.0000 0.0000 -7.9243 7.0343 -78.3256 -12.6869 -18.6662 68.1503 -3.2797 3.0607 -33.5876 -1.5723 7.9117 -22.4462 -2.5189 -2.3228 0.6079 -1.2610 -2.5764 6.1308 -0.0082 -1.2077 6.0787 0.2255 -4.8897 -2.5674 1.7695 -6.5513 8.6223 0.2990 -3.1170 3.2722 0.0000 -0.0000 0.0000 -67.4434 -11.1295 35.6745 43.0209 -49.7612 -20.7167 -0.0000 0.0000 -11.6656 26.8114 -13.9981 -6.9697 -7.1250 0.0000 -0.0000 -0.4303 14.3738 0.3100 0.0000 -0.0000 0.0000 57.1148 12.9386 22.1569 -31.3877 42.0536 -12.3288 0.0000 -0.0000 -11.5251 -15.2080 -44.4779 10.7836 7.1250 -0.0000 -0.0000 37.8831 -72.3980 -25.6667
9.5529 16.5051 19.0010 170.3340 7.0629 -145.7070 0.0000 0.0000 0.0000 7.5569 -14.7247 -30.1795 2.0557 8.9812 25.7365 -4.2216 34.6286 -4.5266 1.3931 7.4673 21.1073 0.0000 0.0000 0.0000 -7.5293 7.2863 -77.7703 -12.4076 -18.5577 67.2750 -3.2664 3.2145 -33.4838 -1.4565 7.6280 -21.5898 -2.2170 -1.8672 0.6270 -1.6945 -1.9256 6.2487 -0.5951 -0.8463 6.1521 1.8280 -5.2159 -3.8300 1.3425 -7.0987 9.2444 -0.1790 -3.3354 3.6516 -0.0000 0.0000 0.0000 -66.6451 -11.6547 36.9796 42.7574 -49.6213 -20.5158 -0.0000 0.0000 -11.7647 27.7007 -13.8708 -7.1739 -7.1250 0.0000 -0.0000 0.1846 14.3959 -0.1329 -0.0000 0.0000 0.0000 58.2044 12.4901 21.1190 -31.1853 41.8880 -12.1934 0.0000 -0.0000 -11.1676 -15.6918 -44.8957 11.2156 7.1250 -0.0000 -0.0000 38.3475 -72.8710 -26.3783
9.6226 16.5815 18.9728 170.4800 7.2161 -145.6810 0.0000 0.0000 0.0000 6.7647 -13.7108 -31.4550 2.5027 9.8428 28.4690 -4.4839 35.3581 -5.4091 1.2426 7.0681 19.9173 0.0000 0.0000 0.0000 -7.0082 7.7042 -77.1443 -12.1290 -18.4446 66.3971 -3.2386 3.5124 -33.2734 -1.3347 7.3153 -20.6530 -3.0069 -2.6882 0.2361 -0.6854 -3.1503 5.6440 0.8243 -1.5585 5.8508 -1.2296 -4.2521 -1.8826 1.4366 -5.5447 9.2324 0.4876 -2.6551 3.3816 -0.0000 0.0000 0.0000 -69.0386 -8.6483 34.7277 42.7637 -49.6247 -20.5206 -0.0000 0.0000 -10.8474 27.0934 -12.9300 -6.5303 -7.1250 0.0000 -0.0000 -0.1506 15.5194 0.1048 -0.0000 0.0000 0.0000 56.5109 13.0798 24.8357 -30.9410 41.6864 -12.0305 0.0000 -0.0000 -11.5193 -15.8001 -45.4733 11.4057 7.1250 -0.0000 -0.0000 39.6482 -73.3173 -27.7045
9.6879 16.6572 18.9420 170.6360 7.3909 -145.7270 0.0000 0.0000 0.0000 6.0127 -13.0417 -32.5661 2.9921 10.6823 31.2157 -4.7785 35.9852 -7.2514 1.1580 6.8318 19.2180 0.0000 0.0000 0.0000 -6.4420 8.0299 -76.3548 -11.7842 -18.2979 65.3030 -3.1812 3.8942 -32.8889 -1.2431 7.0695 -19.9215 -3.4361 -2.9426 -0.1036 -0.2538 -3.5276 5.4121 1.4766 -1.7923 5.8737 -2.1450 -3.7729 -0.8592 1.3044 -4.8317 9.0938 0.6492 -2.3300 3.1538 0.0000 -0.0000 0.0000 -70.2571 -7.1388 33.7387 42.5741 -49.5231 -20.3762 -0.0000 0.0000 -10.2529 26.6915 -12.9539 -6.4302 -7.1250 0.0000 -0.0000 -0.4284 15.5425 0.2979 0.0000 -0.0000 0.0000 55.9606 13.4112 26.6454 -30.6152 41.4149 -11.8145 0.0000 -0.0000 -11.6288 -15.5265 -45.6981 11.2455 7.1250 -0.0000 -0.0000 40.4992 -73.3726 -28.3930
9.7577 16.7352 18.9206 170.7760 7.5357 -145.7960 0.0000 0.0000 0.0000 5.2960 -12.4789 -33.7018 3.5368 11.5171 34.0445 -4.8112 36.1246 -7.0766 0.8666 5.9357 16.5978 0.0000 0.0000 0.0000 -5.8558 8.4667 -75.5246 -11.4656 -18.1555 64.2844 -3.1464 4.1913 -32.6446 -1.1825 6.9012 -19.4231 -2.8191 -2.2245 -0.3372 -0.9609 -2.4936 5.7791 0.4445 -1.2174 6.2742 -0.1279 -4.3131 -1.6796 1.3042 -5.6657 9.1615 0.2582 -2.6824 3.2766 -0.0000 -0.0000 0.0000 -68.8685 -8.1483 35.4911 41.9734 -49.1966 -19.9204 -0.0000 0.0000 -10.6203 26.4420 -13.0414 -6.4031 -7.1250 0.0000 -0.0000 -0.6063 15.4763 0.4226 -0.0000 -0.0000 0.0000 57.5616 12.8170 25.0414 -30.3572 41.1976 -11.6442 0.0000 -0.0000 -11.0666 -15.0667 -45.5345 10.8750 7.1250 -0.0000 -0.0000 40.5567 -73.0929 -28.2082
9.8239 16.8102 18.9014 170.9450 7.7050 -145.7140 0.0000 0.0000 0.0000 4.6962 -12.1698 -34.9995 4.1410 12.3457 36.9661 -4.7183 35.9241 -6.5196 0.5014 4.5395 12.5997 0.0000 0.0000 0.0000 -5.3319 8.9091 -74.9318 -11.1677 -18.0162 63.3250 -3.1155 4.3032 -32.4556 -1.1188 6.7192 -18.8862 -2.8883 -2.2691 -0.6402 -0.8723 -2.5584 5.7375 0.5596 -1.2617 6.4143 -0.4158 -4.1394 -1.7794 1.4193 -5.4261 9.3293 0.3488 -2.5650 3.3651 0.0000 -0.0000 0.0000 -69.1588 -7.4939 35.3394 41.6025 -48.9912 -19.6401 -0.0000 0.0000 -10.6225 26.9926 -13.3576 -6.7115 -7.1250 0.0000 -0.0000 -0.2541 15.0584 0.1793 0.0000 -0.0000 0.0000 57.7862 13.0219 25.8095 -30.0270 40.9166 -11.4273 0.0000 -0.0000 -10.8128 -14.7685 -45.0426 10.5670 7.1250 -0.0000 -0.0000 39.6635 -72.6439 -27.1742
9.8833 16.8752 18.8710 171.2690 8.0590 -145.5990 0.0000 0.0000 0.0000 4.1406 -11.7896 -36.1643 4.7683 13.1180 39.8119 -4.6187 35.5429 -6.7610 0.2991 3.5165 9.7203 0.0000 0.0000 0.0000 -4.7913 9.5102 -74.4327 -10.8569 -17.8644 62.3161 -3.0546 4.4168 -32.1015 -1.0813 6.6092 -18.5626 -2.4739 -1.7354 -1.1496 -1.2927 -1.7960 5.9653 -0.0773 -0.8459 6.8954 0.8558 -4.4715 -2.6723 1.4077 -5.9667 9.6453 0.0821 -2.7842 3.6064 0.0000 0.0000 0.0000 -68.3884 -7.9469 36.5714 41.1227 -48.7211 -19.2787 -0.0000 0.0000 -10.5341 27.6138 -13.5343 -6.9793 -7.1250 0.0000 -0.0000 0.1551 14.7818 -0.1104 0.0000 0.0000 0.0000 58.9856 12.8156 24.8985 -29.6875 40.6240 -11.2056 0.0000 -0.0000 -10.3657 -14.7918 -44.2412 10.4385 7.1250 -0.0000 -0.0000 37.7892 -72.0795 -25.3496
9.9430 16.9425 18.8447 171.4700 8.2850 -145.5820 0.0000 0.0000 0.0000 3.5316 -11.7802 -37.2240 5.4178 13.8394 42.5978 -4.4041 34.8085 -6.7449 0.1509 2.5032 6.8985 0.0000 0.0000 0.0000 -4.3440 10.0067 -73.7601 -10.5471 -17.7062 61.3019 -2.9903 4.5024 -31.7306 -1.0700 6.5758 -18.4645 -2.8029 -2.0471 -1.6949 -0.8942 -2.2373 5.8441 0.4709 -1.1089 7.1222 -0.4760 -4.1002 -1.9033 1.6384 -5.3897 9.4614 0.4274 -2.5379 3.4439 0.0000 0.0000 0.0000 -69.4769 -6.7266 35.4487 40.9648 -48.6312 -19.1602 -0.0000 0.0000 -10.8677 26.4242 -13.1642 -6.4568 -7.1250 0.0000 -0.0000 -0.6279 15.3430 0.4394 0.0000 0.0000 0.0000 58.5681 12.9778 26.7336 -29.7522 40.6801 -11.2478 0.0000 -0.0000 -10.3908 -14.7983 -44.3248 10.4585 7.1250 -0.0000 -0.0000 37.9700 -72.1425 -25.5302
10.0026 17.0154 18.8232 171.6000 8.4332 -145.6340 0.0000 0.0000 0.0000 2.8957 -12.0300 -38.1788 6.0762 14.5018 45.2869 -4.1047 33.8193 -6.2960 0.0000 0.0266 0.0731 0.0000 0.0000 0.0000 -3.9449 10.4664 -72.9142 -10.2052 -17.5236 60.1719 -2.8867 4.4564 -31.1572 -1.1084 6.6888 -18.7967 -3.1638 -2.2827 -1.9868 -0.5934 -2.5812 5.5899 0.9507 -1.3198 7.0641 -1.2835 -3.7957 -0.8325 1.6583 -4.9221 9.2333 0.6125 -2.3314 3.1824 0.0000 -0.0000 0.0000 -70.2411 -5.4001 34.8643 40.6979 -48.4780 -18.9601 -0.0000 0.0000 -10.9392 26.0192 -12.7593 -6.1533 -7.1250 0.0000 -0.0000 -0.8763 15.8374 0.6040 0.0000 -0.0000 0.0000 58.4581 12.7503 28.2707 -29.7019 40.6365 -11.2150 0.0000 -0.0000 -10.2418 -14.7138 -44.7661 10.4772 7.1250 -0.0000 -0.0000 39.0683 -72.4292 -26.5611
10.0580 17.0891 18.8015 171.8130 8.5031 -145.6380 0.0000 0.0000 0.0000 2.3663 -12.3463 -39.1330 6.7381 15.1073 47.8765 -3.8347 32.8445 -6.0753 0.0003 0.1187 0.3261 0.0000 0.0000 0.0000 -3.3850 10.8462 -72.1156 -9.8705 -17.3364 59.0548 -2.7720 4.3804 -30.5152 -1.1749 6.8800 -19.3603 -4.1873 -3.2218 -2.0771 0.4998 -3.9258 4.9573 2.5528 -2.0881 6.6625 -3.8188 -2.7849 0.7268 1.5293 -3.4622 9.1085 1.0750 -1.6807 2.8852 -0.0000 -0.0000 0.0000 -72.6869 -2.6179 32.4239 40.6214 -48.4338 -18.9029 -0.0000 0.0000 -10.5089 26.1555 -12.8640 -6.2397 -7.1250 0.0000 -0.0000 -0.7900 15.7063 0.5467 -0.0000 -0.0000 0.0000 57.0632 13.4884 31.9245 -29.2760 40.2646 -10.9386 0.0000 -0.0000 -10.4418 -14.4815 -44.7217 10.3003 7.1250 -0.0000 -0.0000 39.2075 -72.3152 -26.5720
10.1104 17.1580 18.7751 172.0690 8.5990 -145.5800 0.0000 0.0000 0.0000 1.8434 -12.7314 -40.0548 7.3819 15.6453 50.3045 -3.5718 31.7884 -6.1756 0.0102 0.6510 1.7890 0.0000 0.0000 0.0000 -2.8249 11.2553 -71.4319 -9.5985 -17.1778 58.1380 -2.7216 4.5182 -30.1998 -1.1322 6.7579 -19.0000 -3.5670 -2.6953 -2.4318 0.0031 -3.2035 5.0640 1.7346 -1.6848 6.8488 -2.4732 -3.1987 0.3438 1.6151 -4.0505 9.3044 0.8487 -1.9271 3.0038 0.0000 0.0000 0.0000 -71.5966 -3.0054 33.9299 39.9190 -48.0219 -18.3790 -0.0000 0.0000 -10.6561 26.4007 -13.0006 -6.3721 -7.1250 0.0000 -0.0000 -0.6316 15.5263 0.4395 0.0000 0.0000 0.0000 58.5145 12.8404 30.8376 -28.9226 39.9518 -10.7110 0.0000 -0.0000 -9.8628 -14.4620 -44.3760 10.2246 7.1250 -0.0000 -0.0000 38.4392 -72.0611 -25.8072
10.1640 17.2286 18.7475 172.2050 8.6737 -145.6580 0.0000 0.0000 0.0000 1.1826 -13.2450 -40.8672 8.0368 16.1463 52.6951 -3.2120 30.5628 -4.7227 0.0091 -0.6156 -1.6915 0.0000 0.0000 0.0000 -2.3971 11.6340 -70.5562 -9.2963 -16.9947 57.1094 -2.6898 4.5911 -30.0022 -1.0632 6.5555 -18.4050 -3.2110 -2.2644 -2.5591 -0.4019 -2.6074 5.1421 1.1613 -1.3572 6.9285 -1.3069 -3.5107 -0.0522 1.6220 -4.5006 9.5148 0.6305 -2.1088 3.1251 0.0000 0.0000 0.0000 -70.8324 -3.3363 35.1130 39.1882 -47.5815 -17.8376 -0.0000 0.0000 -10.7567 26.1866 -13.0855 -6.3531 -7.1250 0.0000 -0.0000 -0.7850 15.4587 0.5474 0.0000 0.0000 0.0000 59.7163 12.0395 30.0991 -28.9102 39.9407 -10.7030 0.0000 -0.0000 -9.6341 -14.5599 -44.4574 10.3100 7.1250 -0.0000 -0.0000 38.5204 -72.1542 -25.9402
10.2147 17.3000 18.7219 172.2610 8.6065 -145.7660 0.0000 0.0000 0.0000 0.4774 -13.8407 -41.7289 8.6935 16.6064 55.0241 -2.8159 29.1712 -2.9520 0.2748 -3.3718 -9.3156 0.0000 0.0000 0.0000 -2.0182 11.8669 -69.6281 -8.9757 -16.7920 56.0059 -2.6638 4.5196 -29.8618 -1.0037 6.3752 -17.8769 -2.8848 -1.9216 -2.6389 -0.7591 -2.1246 5.2803 0.6454 -1.0866 7.0699 -0.2052 -3.8839 -0.8359 1.5868 -5.0449 9.9310 0.3959 -2.3347 3.3894 -0.0000 0.0000 0.0000 -70.2006 -3.8263 36.0955 38.4460 -47.1218 -17.2917 -0.0000 0.0000 -10.8738 25.9358 -13.0950 -6.2881 -7.1250 0.0000 -0.0000 -0.9578 15.4785 0.6676 -0.0000 0.0000 0.0000 60.8916 11.3685 29.2945 -28.9823 40.0049 -10.7493 0.0000 -0.0000 -9.5087 -14.3393 -44.7853 10.2082 7.1250 -0.0000 -0.0000 39.5023 -72.3099 -26.7848
10.2639 17.3713 18.6954 172.4240 8.5567 -145.9300 0.0000 0.0000 0.0000 -0.2490 -14.1985 -42.4033 9.2720 16.9796 57.0263 -2.4900 27.7967 -2.0355 0.8337 -5.8248 -16.2770 0.0000 0.0000 0.0000 -1.5259 12.1985 -68.5702 -8.6499 -16.5771 54.8712 -2.6356 4.5265 -29.6945 -0.8973 6.0374 -16.8929 -2.5265 -1.5930 -2.6982 -1.0726 -1.6595 5.4786 0.1555 -0.8221 7.2772 0.9091 -4.2438 -1.9367 1.4636 -5.5919 10.6284 0.1140 -2.5516 3.8093 0.0000 -0.0000 0.0000 -69.5886 -4.4198 37.0188 37.6284 -46.6003 -16.6950 -0.0000 0.0000 -10.9041 26.1877 -13.0111 -6.3182 -7.1250 0.0000 -0.0000 -0.7787 15.5404 0.5417 0.0000 -0.0000 0.0000 62.1462 10.9194 28.3492 -28.8745 39.9089 -10.6801 0.0000 -0.0000 -9.0170 -14.0257 -44.5509 9.9401 7.1250 -0.0000 -0.0000 39.2896 -72.0331 -26.4047
10.3106 17.4371 18.6674 172.6950 8.6342 -145.8780 0.0000 0.0000 0.0000 -0.8936 -14.3909 -43.2124 9.7996 17.2956 58.8166 -2.2694 26.5641 -2.2176 1.1507 -6.8112 -19.1571 0.0000 0.0000 0.0000 -1.0097 12.6296 -67.7279 -8.3037 -16.3381 53.6492 -2.5649 4.5156 -29.2767 -0.8142 5.7581 -16.0840 -2.2179 -1.2287 -2.9895 -1.3362 -1.1492 5.6236 -0.2537 -0.5422 7.5768 2.1146 -4.4722 -3.0994 1.1166 -5.9820 11.2860 -0.2624 -2.6918 4.2194 0.0000 -0.0000 0.0000 -69.0087 -5.0683 37.8184 36.8324 -46.0771 -16.1192 -0.0000 0.0000 -10.7723 25.7374 -12.6486 -6.0258 -7.1250 0.0000 -0.0000 -1.0629 15.9919 0.7290 0.0000 -0.0000 0.0000 63.3104 10.6304 27.4493 -28.6717 39.7273 -10.5503 0.0000 -0.0000 -8.5953 -13.7592 -44.3552 9.7143 7.1250 -0.0000 -0.0000 39.1268 -71.8002 -26.0979
